<svg width="512" height="512" viewBox="0 0 73 108" fill="none" xmlns="http://www.w3.org/2000/svg">
<g clip-path="url(#clip0)">
<path d="M18.0072 108C27.9432 108 36.0072 99.936 36.0072 90V72H18.0072C8.0712 72 0.00720215 80.064 0.00720215 90C0.00720215 99.936 8.0712 108 18.0072 108Z" fill="#0ACF83"/>
<path d="M0.00720215 54C0.00720215 44.064 8.0712 36 18.0072 36H36.0072V72H18.0072C8.0712 72 0.00720215 63.936 0.00720215 54Z" fill="#A259FF"/>
<path d="M0.00842285 18C0.00842285 8.064 8.07242 0 18.0084 0H36.0084V36H18.0084C8.07242 36 0.00842285 27.936 0.00842285 18Z" fill="#F24E1E"/>
<path d="M36.0072 0H54.0072C63.9432 0 72.0072 8.064 72.0072 18C72.0072 27.936 63.9432 36 54.0072 36H36.0072V0Z" fill="#FF7262"/>
<path d="M72.0072 54C72.0072 63.936 63.9432 72 54.0072 72C44.0712 72 36.0072 63.936 36.0072 54C36.0072 44.064 44.0712 36 54.0072 36C63.9432 36 72.0072 44.064 72.0072 54Z" fill="#1ABCFE"/>
</g>
<defs>
<clipPath id="clip0">
<rect width="512" height="512" fill="white"/>
</clipPath>
</defs>
</svg>
