<svg width="512" height="512" viewBox="0 0 64 84" fill="none" xmlns="http://www.w3.org/2000/svg">
<path d="M31.2708 43.8708C29.1917 40.5187 27.6833 37.7396 25.5937 32.5062C22.0604 23.6667 47.0833 15.6792 36.9375 0.331238C41.3354 10.9333 21.1521 17.4875 19.2771 26.3167C17.5625 34.4375 31.2604 43.8708 31.2708 43.8708Z" fill="#F44336"/>
<path d="M31.7458 27.9792C31.3458 33.2208 36.3896 36.0146 36.5354 39.8437C36.6521 42.9604 33.5208 45.5583 33.5208 45.5583C33.5208 45.5583 39.2042 44.4417 40.9771 39.6875C42.9458 34.4083 37.1562 30.7937 37.7521 26.5667C38.3083 22.5292 50.3167 15.0187 50.3167 15.0187C50.3167 15.0187 32.6479 16.1896 31.7458 27.9792Z" fill="#F44336"/>
<path d="M48.8417 44.1979C52.4958 43.3771 55.5771 45.7042 55.5771 48.3854C55.5771 54.4292 47.2 60.1417 47.2 60.1417C47.2 60.1417 60.1687 58.5958 60.1687 48.6729C60.1687 42.1104 53.8 40.4708 48.8417 44.1979ZM42.6854 49.0729C42.6854 49.0729 46.7291 46.1917 47.8062 45.1104C37.8833 47.2167 15.2271 47.5 15.2271 45.6708C15.2271 43.9854 22.5333 42.2583 22.5333 42.2583C22.5333 42.2583 6.33957 42.025 6.33957 46.8021C6.33957 51.7812 27.5375 52.1375 42.6854 49.0729Z" fill="#1565C0"/>
<path d="M40.1979 53.6062C30.8042 56.7291 13.5021 55.7312 18.6271 51.5375C16.1312 51.5375 12.4312 53.5437 12.4312 55.4729C12.4312 59.3416 31.1437 62.3291 44.9937 56.6646L40.1979 53.6062Z" fill="#1565C0"/>
<path d="M20.9292 60.2062C17.5208 60.2062 15.3146 62.4021 15.3146 64.0021C15.3146 68.9833 35.6479 69.4854 43.7042 64.4292L38.5833 61.0292C32.5646 63.675 17.4458 64.0396 20.9292 60.2062Z" fill="#1565C0"/>
<path d="M57.5854 68.3167C57.5854 66.3667 55.3875 65.4479 54.6 65.0083C59.2417 76.2021 8.10625 75.3333 8.10625 68.725C8.10625 67.2229 11.8708 65.7521 15.35 66.4479L12.3917 64.7C5.45833 63.6125 0.75 66.6604 0.75 69.1187C0.75 80.5833 57.5854 80.0312 57.5854 68.3167Z" fill="#1565C0"/>
<path d="M63.25 72.425C54.6125 80.9562 32.7104 84.0646 10.6854 78.7937C32.7104 88.175 63.1458 82.8917 63.25 72.425Z" fill="#1565C0"/>
</svg>
