<svg width="512" height="512" viewBox="0 0 62 85" fill="none" xmlns="http://www.w3.org/2000/svg">
<path d="M28.6793 17.4169C25.9382 12.2704 25.3457 5.39234 25.2164 2.56588C18.2538 4.45089 11.3365 7.83213 11.736 10.3224C11.7864 10.6355 12.1019 11.0116 12.6257 11.3773L11.8065 13.2119C10.8061 12.51 10.2438 11.7009 10.091 10.7342C9.63952 7.91619 12.1892 5.36712 17.8829 2.93994C21.7704 1.28189 25.6914 0.292102 25.8576 0.252175L26.8597 0V1.28399C26.8597 1.37225 26.9034 10.295 30.0758 16.2527L28.6793 17.4169Z" fill="#CFD8DC"/>
<path d="M31.4773 84.0813H31.056C17.3054 84.0813 2.00208 78.6742 0.194291 69.6254C-0.908513 64.0985 2.69868 57.9917 10.6248 51.971L11.4976 53.7657C4.36548 59.1853 0.929494 64.6344 1.82416 69.1168C3.3936 76.9721 17.8962 81.8685 30.6162 81.9777C32.1286 79.1471 40.2544 62.5182 35.6166 40.2155L37.2398 39.6859C42.5255 65.0967 31.8382 83.474 31.7308 83.6568L31.4773 84.0813Z" fill="#CFD8DC"/>
<path d="M6.60131 76.3184C5.69658 76.3184 5.24841 76.1945 5.17455 76.1713C4.87913 76.081 4.64749 75.7973 4.56692 75.4316C4.48467 75.066 4.56859 74.673 4.78345 74.4061C4.9043 74.2548 16.8639 59.2588 18.4787 47.1334L20.1337 47.478C18.7456 57.9097 10.5409 69.8018 7.2828 74.1813C10.5375 73.948 18.7557 72.0399 34.5323 60.9841C22.2202 59.2945 20.2731 46.9548 20.2529 46.8224L21.9029 46.442C21.9818 46.959 23.9608 59.0739 37.4194 59.0739C37.4244 59.0739 37.4278 59.0739 37.4328 59.0739C37.8139 59.0739 38.1445 59.3933 38.2419 59.8514C38.3426 60.3095 38.1815 60.795 37.8541 61.0345C18.9957 74.7129 9.85098 76.3163 6.60131 76.3184Z" fill="#CFD8DC"/>
<path d="M14.3108 81.3495C13.9634 81.3495 13.6478 81.0805 13.5253 80.6665C13.3927 80.2231 13.5135 79.7209 13.8224 79.4435C13.8794 79.3909 16.8656 76.6317 20.0431 70.5585C18.8211 69.8818 17.584 69.0917 16.357 68.1691C14.8664 67.0491 13.7401 65.847 12.8992 64.6156C8.58531 66.0404 4.6038 66.6036 1.10739 66.2316L1.24839 64.1385C4.39734 64.4727 7.97768 64.0062 11.8585 62.7936C9.21812 57.1449 11.6419 51.5382 11.6755 51.4626L13.1426 52.486C13.0301 52.7423 11.0192 57.4664 13.5605 62.222C17.255 60.8939 21.1962 58.929 25.2751 56.3758C26.2134 52.5196 26.9469 48.1339 27.3313 43.187C27.3582 42.8487 27.5126 42.5482 27.7476 42.378C27.9826 42.2077 28.2696 42.193 28.5163 42.3338C28.5701 42.3654 33.9951 45.4671 37.9229 47.4908C38.2083 47.6379 38.4063 47.9699 38.4382 48.3545C38.4718 48.7391 38.3325 49.1131 38.0757 49.3317C34.2335 52.61 30.4165 55.4532 26.6985 57.8258C25.5201 62.5015 24.0615 66.3934 22.5709 69.575C28.7849 72.4813 34.1781 72.5255 34.2469 72.5255C34.6296 72.5255 34.9636 72.8491 35.0593 73.3135C35.155 73.7779 34.9888 74.2634 34.6548 74.4966C27.0342 79.7965 14.9034 81.2885 14.3914 81.3495C14.3645 81.3474 14.3377 81.3495 14.3108 81.3495ZM21.6712 71.4033C19.9256 74.795 18.2101 77.2306 16.9277 78.8214C20.2814 78.2036 26.1614 76.8503 31.0409 74.3264C28.7043 73.9671 25.3221 73.1685 21.6712 71.4033ZM14.7187 63.9725C15.3784 64.7963 16.2009 65.6012 17.2197 66.3682C18.4552 67.297 19.709 68.0851 20.9461 68.7534C22.2117 66.0971 23.4656 62.9092 24.5416 59.1539C21.1492 61.1755 17.8559 62.7894 14.7187 63.9725ZM28.8772 44.8451C28.5331 48.5604 28.0027 51.9501 27.3447 55.0371C30.1311 53.1773 32.9746 51.0528 35.8415 48.6781C33.2415 47.2996 30.3829 45.6962 28.8772 44.8451Z" fill="#CFD8DC"/>
<path d="M20.0179 15.9941C19.8215 15.9941 19.6268 15.9059 19.4724 15.7419C16.7699 12.8461 13.5891 6.95365 13.4548 6.70357C13.2383 6.3022 13.2718 5.76633 13.532 5.40908C13.7905 5.04973 14.2169 4.96567 14.5526 5.19473C14.571 5.20103 16.127 6.00379 26.6666 8.20191C26.9704 8.26496 27.2205 8.52974 27.3213 8.89119C27.4236 9.25264 27.3582 9.65612 27.1534 9.94192C24.2025 14.0461 20.4745 15.8533 20.3167 15.9269C20.2193 15.971 20.1169 15.9941 20.0179 15.9941ZM16.1959 7.8951C17.255 9.67924 18.7808 12.0896 20.1774 13.714C21.0351 13.2244 22.9587 11.995 24.7833 9.93562C20.4476 9.00887 17.8022 8.34902 16.1959 7.8951Z" fill="#CFD8DC"/>
<path d="M26.5962 44.9944C26.482 44.9944 26.3662 44.9649 26.2588 44.9061C25.9247 44.7212 25.7233 44.2883 25.7619 43.8343C26.2521 38.0574 19.1719 35.7395 19.0998 35.7185C18.8077 35.6261 18.5761 35.3424 18.4972 34.9788C18.4183 34.6153 18.5005 34.2244 18.7137 33.9575C19.0612 33.5225 27.3397 23.2443 37.7266 17.5998C38.017 17.4421 38.346 17.501 38.591 17.7469C38.8344 17.9948 38.9469 18.392 38.8831 18.7745C36.8923 30.8452 27.6201 44.0844 27.2273 44.6413C27.0611 44.8704 26.8295 44.9944 26.5962 44.9944ZM20.9092 34.2454C22.8966 35.1805 26.3779 37.3451 27.2592 41.2979C29.6914 37.4985 34.8831 28.7459 36.8218 20.422C29.4581 24.8561 23.2575 31.5429 20.9092 34.2454Z" fill="#B71C1C"/>
<path d="M11.8854 53.316L11.0881 51.4667C14.2488 49.3338 17.8694 45.4082 20.8354 40.846C18.3109 43.0105 16.8656 44.492 16.8203 44.5403L15.7477 42.9222C15.8132 42.855 18.7087 39.8814 23.5211 36.1555C24.8421 33.4951 25.8576 30.759 26.3796 28.1364C26.4686 27.6908 26.5458 27.26 26.6079 26.844C23.3767 25.4003 20.3956 24.545 18.3478 24.1772C18.0373 24.1226 17.7788 23.8557 17.6747 23.4879C17.5706 23.1202 17.6394 22.7083 17.8493 22.4225C17.9919 22.2292 21.4011 17.6564 25.6612 15.1451C25.9919 14.9497 26.388 15.0464 26.6364 15.3847C26.7489 15.5381 29.0535 18.7786 28.4677 25.4822C30.4064 26.4279 32.4039 27.5774 34.3275 28.9454C38.9586 26.3396 44.2175 23.9944 49.8188 22.578C50.1075 22.5066 50.4281 22.6368 50.6262 22.931C50.8226 23.2253 50.8763 23.6308 50.7655 23.9881C48.5834 30.9901 42.732 38.4692 42.4836 38.7844C42.314 38.9988 42.0824 39.106 41.8407 39.0955C41.6007 39.0786 41.3791 38.9357 41.228 38.7004C39.3481 35.7415 36.8907 33.2912 34.2402 31.2969C30.5894 33.4068 27.3565 35.6638 24.6994 37.7043C21.3087 44.3302 16.1909 50.4139 11.8854 53.316ZM36.0783 30.2756C38.2436 32.0241 40.2595 34.0793 41.9263 36.4707C43.3161 34.5836 46.6514 29.8133 48.5431 25.0766C44.095 26.3585 39.8852 28.2141 36.0783 30.2756ZM28.2008 27.5984C28.1454 27.9409 28.0817 28.2919 28.0112 28.6491C27.6587 30.4122 27.098 32.2237 26.3796 34.0309C28.2193 32.7154 30.2554 31.3579 32.4526 30.0424C31.046 29.1093 29.6108 28.2982 28.2008 27.5984ZM20.2261 22.4498C22.0909 22.9079 24.3889 23.6561 26.8412 24.732C27.0964 20.859 26.2604 18.4865 25.7552 17.4357C23.4455 18.9446 21.4229 21.0671 20.2261 22.4498Z" fill="#B71C1C"/>
<path d="M20.2294 32.5956C20.2294 41.8 14.1027 49.1131 9.68817 54.4508C8.94961 55.3544 6.44858 55.5015 6.44858 55.5015C7.06964 54.703 7.77463 53.8624 8.52997 52.9588C12.7263 47.8732 18.5509 40.9174 18.5509 32.5956C18.5509 22.7398 15.3784 18.8521 12.8774 15.742C11.7696 14.334 10.8296 12.989 10.2589 11.3499L10.7792 11.0767C11.3499 11.3919 12.0046 11.7492 12.5081 12.0224C12.911 12.7579 13.4481 13.4724 14.0692 14.2499C16.6373 17.4652 20.2294 21.8782 20.2294 32.5956Z" fill="#B71C1C"/>
<path d="M62 35.315C62 35.315 60.9845 35.4957 60.6991 35.5377C45.9951 37.5761 30.821 42.8718 22.143 47.2218C19.0041 48.7979 15.7477 50.7102 12.7767 52.8537C12.7599 52.8747 12.7431 52.8747 12.7095 52.8958C10.9639 54.1566 6.71714 56.7624 3.27612 59.053C8.31176 52.3494 17.7452 47.1798 21.5051 45.2885C30.0153 41.0225 44.6355 35.874 59.0206 33.6674C57.3253 31.1877 53.1793 25.9341 45.0215 22.0253C40.2545 19.7137 33.0032 18.4108 26.6079 17.255C16.4359 15.4268 10.6449 14.2079 10.091 10.7405C9.97352 10.047 10.0574 9.35356 10.3092 8.68109C10.8631 9.81588 11.6521 10.6144 12.1724 11.0768C12.4242 11.2869 12.6088 11.413 12.676 11.455L12.6928 11.476C15.0763 13.0521 21.5051 14.2079 26.8597 15.1746C33.3389 16.3514 40.6741 17.6753 45.6258 20.05C57.1574 25.6188 61.1356 33.5834 61.3034 33.9196C61.4545 34.2348 62 35.315 62 35.315Z" fill="#B71C1C"/>
</svg>
